<svg xmlns="http://www.w3.org/2000/svg" width="24" height="24" viewBox="0 0 24 24"><g fill="none"><path fill="url(#bellBody)" d="M12 2a6 6 0 0 0-6 6v3.7c0 .9-.31 1.77-.88 2.46l-.74.9A1.75 1.75 0 0 0 5.73 18h12.54a1.75 1.75 0 0 0 1.35-2.94l-.74-.9A3.84 3.84 0 0 1 18 11.7V8a6 6 0 0 0-6-6"/><path fill="url(#bellClapper)" d="M9.25 19a2.75 2.75 0 0 0 5.5 0z"/><path fill="url(#bellHighlight)" d="M9 8.25A3.25 3.25 0 0 1 12.25 5a.75.75 0 0 1 0 1.5A1.75 1.75 0 0 0 10.5 8.25a.75.75 0 0 1-1.5 0"/><defs><linearGradient id="bellBody" x1="5.2" x2="19.9" y1="3.4" y2="19.6" gradientUnits="userSpaceOnUse"><stop stop-color="#0fafff"/><stop offset=".48" stop-color="#9c6cfe"/><stop offset="1" stop-color="#e656eb"/></linearGradient><linearGradient id="bellClapper" x1="9.75" x2="14.25" y1="19" y2="21.5" gradientUnits="userSpaceOnUse"><stop stop-color="#ffcd0f"/><stop offset="1" stop-color="#ff6f47"/></linearGradient><linearGradient id="bellHighlight" x1="9.2" x2="12.9" y1="5.1" y2="8.7" gradientUnits="userSpaceOnUse"><stop stop-color="#f8fbff"/><stop offset="1" stop-color="#b6efff"/></linearGradient></defs></g></svg>
